  0
SECTION
  2
HEADER
  9
$ACADVER
  1
AC1009
  9
$INSBASE
 10
0.0
 20
0.0
 30
0.0
  9
$EXTMIN
 10
0.0
 20
0.0
 30
0.0
  9
$EXTMAX
 10
0.0
 20
0.0
 30
0.0
  0
ENDSEC
  0
SECTION
  2
TABLES
  0
TABLE
  2
VPORT
 70
0
  0
ENDTAB
  0
TABLE
  2
LTYPE
 70
1
  0
LTYPE
  2
CONTINUOUS
 70
0
  3
Solid line
 72
65
 73
0
 40
0.0
  0
ENDTAB
  0
TABLE
  2
LAYER
 70
1
  0
LAYER
  2
0
 70
64
 62
7
  6
continuous
  0
ENDTAB
  0
TABLE
  2
STYLE
 70
1
  0
STYLE
  2
STANDARD
 70
0
 40
0
 41
1.0
 50
0.0
 71
0
 42
1
 3
ARIAL.TTF
 4

  0
ENDTAB
  0
TABLE
  2
VIEW
 70
0
  0
ENDTAB
  0
ENDSEC
  0
SECTION
  2
BLOCKS
  0
BLOCK
  8
0
  2
BODY
 70
0
 10
0.0
 20
0.0
 30
0.0
  3
BODY
  0
LINE
  8
0
 62
0
 10
0.0
 20
0.0
 30
0.0
 11
45.0
 21
0.0
 31
0.0
  0
LINE
  8
0
 62
0
 10
0.0
 20
150.0
 30
0.0
 11
0.0
 21
0.0
 31
0.0
  0
LINE
  8
0
 62
0
 10
45.0
 20
0.0
 30
0.0
 11
45.0
 21
150.0
 31
0.0
  0
LINE
  8
0
 62
0
 10
45.0
 20
150.0
 30
0.0
 11
0.0
 21
150.0
 31
0.0
  0
CIRCLE
  8
0
 62
0
 10
33.4005284926
 20
142.723445454
 30
0.0
 40
1.5
  0
CIRCLE
  8
0
 62
0
 10
11.7305284926
 20
142.723445454
 30
0.0
 40
1.5
  0
LINE
  8
0
 62
0
 10
10.0
 20
125.450228816
 30
0.0
 11
35.0
 21
125.450228816
 31
0.0
  0
LINE
  8
0
 62
0
 10
10.0
 20
118.700228816
 30
0.0
 11
10.0
 21
125.450228816
 31
0.0
  0
LINE
  8
0
 62
0
 10
35.0
 20
125.450228816
 30
0.0
 11
35.0
 21
118.700228816
 31
0.0
  0
LINE
  8
0
 62
0
 10
35.0
 20
118.700228816
 30
0.0
 11
10.0
 21
118.700228816
 31
0.0
  0
CIRCLE
  8
0
 62
0
 10
11.7305284926
 20
97.2234454539
 30
0.0
 40
1.5
  0
CIRCLE
  8
0
 62
0
 10
33.4005284926
 20
97.2234454539
 30
0.0
 40
1.5
  0
LINE
  8
0
 62
0
 10
41.1409528155
 20
91.7661750003
 30
0.0
 11
41.1409528155
 21
28.7661750003
 31
0.0
  0
LINE
  8
0
 62
0
 10
4.14095281554
 20
91.7661750003
 30
0.0
 11
41.1409528155
 21
91.7661750003
 31
0.0
  0
LINE
  8
0
 62
0
 10
4.14095281554
 20
28.7661750003
 30
0.0
 11
4.14095281554
 21
91.7661750003
 31
0.0
  0
LINE
  8
0
 62
0
 10
41.1409528155
 20
28.7661750003
 30
0.0
 11
4.14095281554
 21
28.7661750003
 31
0.0
  0
LINE
  8
0
 62
0
 10
10.0
 20
15.4272458155
 30
0.0
 11
35.0
 21
15.4272458155
 31
0.0
  0
LINE
  8
0
 62
0
 10
10.0
 20
8.67724581554
 30
0.0
 11
10.0
 21
15.4272458155
 31
0.0
  0
LINE
  8
0
 62
0
 10
35.0
 20
15.4272458155
 30
0.0
 11
35.0
 21
8.67724581554
 31
0.0
  0
LINE
  8
0
 62
0
 10
35.0
 20
8.67724581554
 30
0.0
 11
10.0
 21
8.67724581554
 31
0.0
  0
LINE
  8
0
 62
0
 10
35.0
 20
33.4290367203
 30
0.0
 11
10.0
 21
33.4290367203
 31
0.0
  0
LINE
  8
0
 62
0
 10
35.0
 20
30.4290367203
 30
0.0
 11
35.0
 21
33.4290367203
 31
0.0
  0
LINE
  8
0
 62
0
 10
10.0
 20
30.4290367203
 30
0.0
 11
35.0
 21
30.4290367203
 31
0.0
  0
LINE
  8
0
 62
0
 10
10.0
 20
33.4290367203
 30
0.0
 11
10.0
 21
30.4290367203
 31
0.0
  0
LINE
  8
0
 62
0
 10
10.0
 20
87.4290367203
 30
0.0
 11
10.0
 21
90.4290367203
 31
0.0
  0
LINE
  8
0
 62
0
 10
10.0
 20
90.4290367203
 30
0.0
 11
35.0
 21
90.4290367203
 31
0.0
  0
LINE
  8
0
 62
0
 10
35.0
 20
90.4290367203
 30
0.0
 11
35.0
 21
87.4290367203
 31
0.0
  0
LINE
  8
0
 62
0
 10
35.0
 20
87.4290367203
 30
0.0
 11
10.0
 21
87.4290367203
 31
0.0
  0
LINE
  8
0
 62
0
 10
38.0
 20
71.0195278155
 30
0.0
 11
38.0
 21
51.0195278155
 31
0.0
  0
LINE
  8
0
 62
0
 10
38.0
 20
51.0195278155
 30
0.0
 11
35.0
 21
51.0195278155
 31
0.0
  0
LINE
  8
0
 62
0
 10
35.0
 20
51.0195278155
 30
0.0
 11
35.0
 21
71.0195278155
 31
0.0
  0
LINE
  8
0
 62
0
 10
35.0
 20
71.0195278155
 30
0.0
 11
38.0
 21
71.0195278155
 31
0.0
  0
LINE
  8
0
 62
0
 10
10.0
 20
71.0195278155
 30
0.0
 11
7.0
 21
71.0195278155
 31
0.0
  0
LINE
  8
0
 62
0
 10
10.0
 20
51.0195278155
 30
0.0
 11
10.0
 21
71.0195278155
 31
0.0
  0
LINE
  8
0
 62
0
 10
7.0
 20
51.0195278155
 30
0.0
 11
10.0
 21
51.0195278155
 31
0.0
  0
LINE
  8
0
 62
0
 10
7.0
 20
71.0195278155
 30
0.0
 11
7.0
 21
51.0195278155
 31
0.0
  0
LINE
  8
0
 62
0
 10
4.14095281554
 20
28.7661750003
 30
0.0
 11
4.14095281554
 21
91.7661750003
 31
0.0
  0
ENDBLK
  0
ENDSEC
  0
SECTION
  2
ENTITIES
  0
INSERT
  2
BODY
  8
0
 62
0
 10
0.0
 20
0.0
 30
0.0
  0
ENDSEC
  0
EOF
